<mxfile host="app.diagrams.net" modified="2020-10-22T22:55:33.929Z" agent="5.0 (Windows NT 10.0; Win64; x64) AppleWebKit/537.36 (KHTML, like Gecko) Chrome/86.0.4240.75 Safari/537.36" etag="htvmWIKdD6NgV7r6vEj1" version="13.8.1" type="github" pages="2">
  <diagram id="2dJAtTzYBBDmyN-PzjmT" name="Page-1">
    <mxGraphModel dx="2272" dy="1894" grid="1" gridSize="10" guides="1" tooltips="1" connect="1" arrows="1" fold="1" page="1" pageScale="1" pageWidth="850" pageHeight="1100" math="1" shadow="0">
      <root>
        <mxCell id="0" />
        <mxCell id="1" parent="0" />
        <mxCell id="4XUhLhnA6siuGQTpz5Ow-35" value="&lt;span style=&quot;font-size: 27px&quot;&gt;Chainlink EURO/USD &lt;br&gt;PRICE ORACLE&lt;/span&gt;" style="rounded=0;whiteSpace=wrap;html=1;shadow=0;dashed=1;dashPattern=1 1;labelBackgroundColor=none;strokeWidth=4;align=center;strokeColor=#10739e;glass=0;sketch=0;fillColor=#b1ddf0;fontSize=27;" parent="1" vertex="1">
          <mxGeometry x="690" y="280" width="220" height="180" as="geometry" />
        </mxCell>
        <mxCell id="G5pyGGpDoqd2RvzIEwfP-1" value="" style="shape=actor;whiteSpace=wrap;html=1;rounded=0;shadow=0;glass=0;labelBackgroundColor=none;sketch=0;strokeWidth=4;fillColor=#b0e3e6;fontSize=27;align=center;strokeColor=#0e8088;" parent="1" vertex="1">
          <mxGeometry x="80" y="320" width="40" height="60" as="geometry" />
        </mxCell>
        <mxCell id="uuhmvlGmtuIwiNIzIhra-4" value="" style="endArrow=classic;html=1;fontSize=27;fontColor=#000000;entryX=0.9;entryY=0.5;entryDx=0;entryDy=0;entryPerimeter=0;" parent="1" target="G5pyGGpDoqd2RvzIEwfP-1" edge="1">
          <mxGeometry relative="1" as="geometry">
            <mxPoint x="280" y="54" as="sourcePoint" />
            <mxPoint x="390" y="60" as="targetPoint" />
            <Array as="points">
              <mxPoint x="280" y="350" />
            </Array>
          </mxGeometry>
        </mxCell>
        <mxCell id="uuhmvlGmtuIwiNIzIhra-5" value="&lt;span style=&quot;font-family: &amp;#34;courier new&amp;#34; , &amp;#34;courier&amp;#34; , monospace ; text-align: left&quot;&gt;&lt;font style=&quot;font-size: 17px&quot;&gt;\(1*aDAIu + 1*\frac{aDAIs}{e_0}\)&lt;/font&gt;&lt;/span&gt;" style="edgeLabel;resizable=0;html=1;align=center;verticalAlign=middle;fontSize=16;" parent="uuhmvlGmtuIwiNIzIhra-4" connectable="0" vertex="1">
          <mxGeometry relative="1" as="geometry">
            <mxPoint x="-10.039999999999992" y="-83.69" as="offset" />
          </mxGeometry>
        </mxCell>
        <mxCell id="uuhmvlGmtuIwiNIzIhra-6" value="" style="endArrow=classic;html=1;fontSize=27;fontColor=#000000;exitX=0.5;exitY=0;exitDx=0;exitDy=0;" parent="1" source="G5pyGGpDoqd2RvzIEwfP-1" edge="1">
          <mxGeometry relative="1" as="geometry">
            <mxPoint x="250" y="220" as="sourcePoint" />
            <mxPoint x="100" y="53" as="targetPoint" />
          </mxGeometry>
        </mxCell>
        <mxCell id="uuhmvlGmtuIwiNIzIhra-7" value="&lt;span style=&quot;font-family: &amp;#34;courier new&amp;#34; , &amp;#34;courier&amp;#34; , monospace ; font-size: 17px ; text-align: left&quot;&gt;\(2*aDAI\)&lt;/span&gt;" style="edgeLabel;resizable=0;html=1;align=center;verticalAlign=middle;fontSize=16;" parent="uuhmvlGmtuIwiNIzIhra-6" connectable="0" vertex="1">
          <mxGeometry relative="1" as="geometry" />
        </mxCell>
        <mxCell id="4XUhLhnA6siuGQTpz5Ow-33" value="&lt;h1&gt;&lt;font style=&quot;font-size: 27px&quot;&gt;&lt;u&gt;Main Contract&lt;/u&gt;&lt;/font&gt;&lt;/h1&gt;&lt;p style=&quot;font-size: 19px&quot;&gt;&lt;/p&gt;&lt;ol style=&quot;font-size: 18px&quot;&gt;&lt;li style=&quot;text-align: left&quot;&gt;&lt;font style=&quot;font-size: 18px&quot;&gt;Deposit aDai to the contract&lt;/font&gt;&lt;/li&gt;&lt;li style=&quot;text-align: left&quot;&gt;&lt;font style=&quot;font-size: 18px&quot;&gt;Owner calls price oracle and set initial exchange rate e = EUR/USD. Allow users to mint derivative tokens&lt;/font&gt;&lt;/li&gt;&lt;li style=&quot;text-align: left&quot;&gt;&lt;font style=&quot;font-size: 18px&quot;&gt;Users mint aDAIs and aDAIu against their deposits with fixed exchange rate e&lt;/font&gt;&lt;/li&gt;&lt;/ol&gt;&lt;p&gt;&lt;/p&gt;" style="text;html=1;strokeColor=none;fillColor=none;spacing=5;spacingTop=-20;whiteSpace=wrap;overflow=hidden;rounded=0;shadow=1;dashed=1;dashPattern=1 1;labelBackgroundColor=none;fontColor=#000000;align=center;" parent="1" vertex="1">
          <mxGeometry x="60" y="-310" width="770" height="150" as="geometry" />
        </mxCell>
        <mxCell id="jAntQp2-VzLY4A2VR2Bl-2" value="Admin" style="rounded=1;whiteSpace=wrap;html=1;shadow=0;glass=1;labelBackgroundColor=none;sketch=0;strokeWidth=6;fontFamily=Helvetica;fontSize=22;align=center;strokeColor=#b46504;fillColor=none;" parent="1" vertex="1">
          <mxGeometry x="360" y="350" width="250" height="160" as="geometry" />
        </mxCell>
        <mxCell id="jAntQp2-VzLY4A2VR2Bl-11" value="" style="edgeStyle=elbowEdgeStyle;elbow=vertical;endArrow=classic;html=1;fontFamily=Helvetica;fontSize=22;fontColor=#000000;exitX=1;exitY=1;exitDx=0;exitDy=0;" parent="1" edge="1">
          <mxGeometry width="50" height="50" relative="1" as="geometry">
            <mxPoint x="400" y="50" as="sourcePoint" />
            <mxPoint x="670" y="95" as="targetPoint" />
            <Array as="points">
              <mxPoint x="520" y="150" />
              <mxPoint x="400" y="50" />
              <mxPoint x="550" y="125" />
            </Array>
          </mxGeometry>
        </mxCell>
        <mxCell id="jAntQp2-VzLY4A2VR2Bl-15" value="" style="edgeStyle=elbowEdgeStyle;elbow=vertical;endArrow=classic;html=1;fontFamily=Helvetica;fontSize=22;fontColor=#000000;entryX=1;entryY=1;entryDx=0;entryDy=0;" parent="1" source="jAntQp2-VzLY4A2VR2Bl-2" edge="1">
          <mxGeometry width="50" height="50" relative="1" as="geometry">
            <mxPoint x="350" y="130" as="sourcePoint" />
            <mxPoint x="400" y="50" as="targetPoint" />
          </mxGeometry>
        </mxCell>
        <mxCell id="jAntQp2-VzLY4A2VR2Bl-17" value="" style="edgeStyle=elbowEdgeStyle;elbow=vertical;endArrow=classic;html=1;fontFamily=Helvetica;fontSize=22;fontColor=#000000;exitX=0.5;exitY=0;exitDx=0;exitDy=0;" parent="1" source="jAntQp2-VzLY4A2VR2Bl-2" edge="1">
          <mxGeometry width="50" height="50" relative="1" as="geometry">
            <mxPoint x="350" y="130" as="sourcePoint" />
            <mxPoint x="800" y="280" as="targetPoint" />
          </mxGeometry>
        </mxCell>
        <mxCell id="uuhmvlGmtuIwiNIzIhra-24" value="State variables" style="shape=table;childLayout=tableLayout;rowLines=0;columnLines=0;startSize=40;html=1;whiteSpace=wrap;collapsible=0;recursiveResize=0;expand=0;pointerEvents=0;fontStyle=1;align=center;rounded=0;shadow=0;glass=0;labelBackgroundColor=none;sketch=0;strokeWidth=4;fontSize=23;strokeColor=#23445d;fillColor=#BAC8D3;" parent="1" vertex="1">
          <mxGeometry x="530" y="-150" width="340" height="245" as="geometry" />
        </mxCell>
        <mxCell id="uuhmvlGmtuIwiNIzIhra-29" value="&lt;font style=&quot;font-size: 18px&quot;&gt;final&lt;/font&gt;" style="swimlane;horizontal=0;points=[[0,0.5],[1,0.5]];portConstraint=eastwest;startSize=70;html=1;whiteSpace=wrap;collapsible=0;recursiveResize=0;expand=0;pointerEvents=0;" parent="uuhmvlGmtuIwiNIzIhra-24" vertex="1">
          <mxGeometry y="40" width="340" height="93" as="geometry" />
        </mxCell>
        <mxCell id="uuhmvlGmtuIwiNIzIhra-30" value="" style="swimlane;connectable=0;startSize=0;html=1;whiteSpace=wrap;collapsible=0;recursiveResize=0;expand=0;pointerEvents=0;align=center;" parent="uuhmvlGmtuIwiNIzIhra-29" vertex="1">
          <mxGeometry x="70" width="130" height="93" as="geometry" />
        </mxCell>
        <mxCell id="uuhmvlGmtuIwiNIzIhra-31" value="" style="swimlane;connectable=0;startSize=0;html=1;whiteSpace=wrap;collapsible=0;recursiveResize=0;expand=0;pointerEvents=0;align=center;" parent="uuhmvlGmtuIwiNIzIhra-29" vertex="1">
          <mxGeometry x="200" width="115" height="93" as="geometry" />
        </mxCell>
        <mxCell id="uuhmvlGmtuIwiNIzIhra-32" value="" style="swimlane;connectable=0;startSize=0;html=1;whiteSpace=wrap;collapsible=0;recursiveResize=0;expand=0;pointerEvents=0;" parent="uuhmvlGmtuIwiNIzIhra-29" vertex="1">
          <mxGeometry x="315" width="25" height="93" as="geometry" />
        </mxCell>
        <mxCell id="uuhmvlGmtuIwiNIzIhra-33" value="&lt;font style=&quot;font-size: 18px&quot;&gt;initial&lt;/font&gt;" style="swimlane;horizontal=0;points=[[0,0.5],[1,0.5]];portConstraint=eastwest;startSize=70;html=1;whiteSpace=wrap;collapsible=0;recursiveResize=0;expand=0;pointerEvents=0;" parent="uuhmvlGmtuIwiNIzIhra-24" vertex="1">
          <mxGeometry y="133" width="340" height="112" as="geometry" />
        </mxCell>
        <mxCell id="uuhmvlGmtuIwiNIzIhra-34" value="&lt;div style=&quot;font-size: 14px;&quot;&gt;&lt;br style=&quot;font-size: 14px;&quot;&gt;&lt;br style=&quot;font-size: 14px;&quot;&gt;&lt;span style=&quot;font-size: 14px;&quot;&gt;Initial Capital&amp;nbsp;&lt;/span&gt;&lt;br style=&quot;font-size: 14px;&quot;&gt;&lt;/div&gt;" style="swimlane;connectable=0;startSize=0;html=1;whiteSpace=wrap;collapsible=0;recursiveResize=0;expand=0;pointerEvents=0;align=center;verticalAlign=top;textDirection=ltr;fontSize=14;" parent="uuhmvlGmtuIwiNIzIhra-33" vertex="1">
          <mxGeometry x="70" width="130" height="112" as="geometry" />
        </mxCell>
        <mxCell id="uuhmvlGmtuIwiNIzIhra-35" value="&lt;span style=&quot;font-family: &amp;#34;courier new&amp;#34; , &amp;#34;courier&amp;#34; , monospace ; font-weight: 400 ; background-color: rgb(255 , 255 , 255)&quot;&gt;&lt;font style=&quot;font-size: 31px&quot;&gt;\(e_0\)&lt;/font&gt;&lt;/span&gt;" style="swimlane;connectable=0;startSize=0;html=1;whiteSpace=wrap;collapsible=0;recursiveResize=0;expand=0;pointerEvents=0;fontSize=22;horizontal=1;textDirection=ltr;verticalAlign=top;align=center;" parent="uuhmvlGmtuIwiNIzIhra-33" vertex="1">
          <mxGeometry x="200" width="115" height="112" as="geometry" />
        </mxCell>
        <mxCell id="uuhmvlGmtuIwiNIzIhra-36" value="" style="swimlane;connectable=0;startSize=0;html=1;whiteSpace=wrap;collapsible=0;recursiveResize=0;expand=0;pointerEvents=0;" parent="uuhmvlGmtuIwiNIzIhra-33" vertex="1">
          <mxGeometry x="315" width="25" height="112" as="geometry" />
        </mxCell>
        <mxCell id="kONQDVaUHQGAATV9A70o-1" value="Investor" style="text;html=1;strokeColor=none;fillColor=none;align=center;verticalAlign=middle;whiteSpace=wrap;rounded=0;shadow=0;glass=1;labelBackgroundColor=none;sketch=0;fontFamily=Helvetica;fontSize=22;fontColor=#000000;" parent="1" vertex="1">
          <mxGeometry x="80" y="390" width="40" height="20" as="geometry" />
        </mxCell>
        <mxCell id="_d5LTXDOqDdxoUwXutbY-14" value="&lt;span style=&quot;font-size: 23px ; font-weight: 700&quot;&gt;Contract Balance&lt;/span&gt;" style="rounded=1;whiteSpace=wrap;html=1;fillColor=#fff2cc;strokeWidth=4;strokeColor=#D6B656;" vertex="1" parent="1">
          <mxGeometry x="50" y="-150" width="350" height="50" as="geometry" />
        </mxCell>
        <mxCell id="_d5LTXDOqDdxoUwXutbY-15" value="&lt;span style=&quot;font-size: 14px ; font-weight: 700&quot;&gt;2 aDAI&lt;/span&gt;" style="rounded=0;whiteSpace=wrap;html=1;fillColor=#fff2cc;strokeColor=#d6b656;dashed=1;" vertex="1" parent="1">
          <mxGeometry x="50" y="-50" width="180" height="100" as="geometry" />
        </mxCell>
        <mxCell id="_d5LTXDOqDdxoUwXutbY-17" value="&lt;span style=&quot;font-size: 14px ; font-weight: 700&quot;&gt;1 aDAIu&lt;/span&gt;" style="rounded=0;whiteSpace=wrap;html=1;strokeColor=#D6B656;dashed=1;fillColor=#FFF2CC;" vertex="1" parent="1">
          <mxGeometry x="230" y="-50" width="170" height="50" as="geometry" />
        </mxCell>
        <mxCell id="_d5LTXDOqDdxoUwXutbY-26" value="&lt;span style=&quot;font-size: 14px ; font-weight: 700&quot;&gt;IN&lt;/span&gt;" style="rounded=0;whiteSpace=wrap;html=1;fillColor=#fff2cc;strokeColor=#d6b656;" vertex="1" parent="1">
          <mxGeometry x="50" y="-100" width="180" height="50" as="geometry" />
        </mxCell>
        <mxCell id="_d5LTXDOqDdxoUwXutbY-27" value="&lt;span style=&quot;font-size: 14px ; font-weight: 700&quot;&gt;OUT&lt;/span&gt;" style="rounded=0;whiteSpace=wrap;html=1;fillColor=#fff2cc;strokeColor=#d6b656;" vertex="1" parent="1">
          <mxGeometry x="230" y="-100" width="170" height="50" as="geometry" />
        </mxCell>
        <mxCell id="_d5LTXDOqDdxoUwXutbY-28" value="" style="edgeStyle=elbowEdgeStyle;elbow=vertical;endArrow=classic;html=1;fontFamily=Helvetica;fontSize=22;fontColor=#000000;exitX=0.5;exitY=0;exitDx=0;exitDy=0;" edge="1" parent="1" source="4XUhLhnA6siuGQTpz5Ow-35">
          <mxGeometry width="50" height="50" relative="1" as="geometry">
            <mxPoint x="800" y="280" as="sourcePoint" />
            <mxPoint x="800" y="40" as="targetPoint" />
          </mxGeometry>
        </mxCell>
        <mxCell id="E98Kl3k2uJ_tmqY4yj09-1" value="" style="rounded=1;whiteSpace=wrap;html=1;shadow=0;glass=1;labelBackgroundColor=none;sketch=0;strokeWidth=4;gradientColor=none;fontSize=15;align=center;fillColor=none;" vertex="1" parent="1">
          <mxGeometry x="-7.5" y="-330" width="905" height="550" as="geometry" />
        </mxCell>
        <mxCell id="UaezrTL0CagsEwG9Wrnk-1" value="&lt;span style=&quot;font-family: &amp;#34;courier new&amp;#34; , &amp;#34;courier&amp;#34; , monospace ; font-size: 17px ; text-align: left ; background-color: rgb(255 , 242 , 204)&quot;&gt;\(1\frac{aDAIs}{e_0}\)&lt;/span&gt;" style="rounded=0;whiteSpace=wrap;html=1;strokeColor=#D6B656;dashed=1;fillColor=#FFF2CC;" vertex="1" parent="1">
          <mxGeometry x="230" width="170" height="50" as="geometry" />
        </mxCell>
      </root>
    </mxGraphModel>
  </diagram>
  <diagram id="HZ3dKPAo8PAfwK-Si58E" name="Page-2">
    <mxGraphModel dx="2272" dy="1894" grid="1" gridSize="10" guides="1" tooltips="1" connect="1" arrows="1" fold="1" page="1" pageScale="1" pageWidth="850" pageHeight="1100" math="1" shadow="0">
      <root>
        <mxCell id="-0bQhvXT2Ae33jYl0nog-0" />
        <mxCell id="-0bQhvXT2Ae33jYl0nog-1" parent="-0bQhvXT2Ae33jYl0nog-0" />
        <mxCell id="z8cZ8EHx2QSfqwb-phpB-0" value="&lt;span style=&quot;font-size: 27px&quot;&gt;Chainlink EURO/USD &lt;br&gt;PRICE ORACLE&lt;/span&gt;" style="rounded=0;whiteSpace=wrap;html=1;shadow=0;dashed=1;dashPattern=1 1;labelBackgroundColor=none;strokeWidth=4;align=center;strokeColor=#10739e;glass=0;sketch=0;fillColor=#b1ddf0;fontSize=27;" parent="-0bQhvXT2Ae33jYl0nog-1" vertex="1">
          <mxGeometry x="680" y="280" width="220" height="180" as="geometry" />
        </mxCell>
        <mxCell id="z8cZ8EHx2QSfqwb-phpB-1" value="" style="shape=actor;whiteSpace=wrap;html=1;rounded=0;shadow=0;glass=0;labelBackgroundColor=none;sketch=0;strokeWidth=4;fillColor=#b0e3e6;fontSize=27;align=center;strokeColor=#0e8088;" parent="-0bQhvXT2Ae33jYl0nog-1" vertex="1">
          <mxGeometry x="50" y="210" width="40" height="60" as="geometry" />
        </mxCell>
        <mxCell id="z8cZ8EHx2QSfqwb-phpB-6" value="&lt;h1&gt;&lt;font style=&quot;font-size: 27px&quot;&gt;&lt;u&gt;Main Contract&lt;/u&gt;&lt;/font&gt;&lt;/h1&gt;&lt;ol style=&quot;font-size: 18px&quot;&gt;&lt;li style=&quot;text-align: left&quot;&gt;&lt;font style=&quot;font-size: 18px&quot;&gt;Owner calls price oracle and sets the final exchange rate e = EUR/USD. Furthermore, the total amount of interest earned is estimated.&lt;/font&gt;&lt;/li&gt;&lt;li style=&quot;text-align: left&quot;&gt;Allow users to redeem their aDAI. Derivative tokens are burned in the process.&lt;br&gt;&lt;/li&gt;&lt;/ol&gt;&lt;p&gt;&lt;/p&gt;" style="text;html=1;strokeColor=none;fillColor=none;spacing=5;spacingTop=-20;whiteSpace=wrap;overflow=hidden;rounded=0;shadow=1;dashed=1;dashPattern=1 1;labelBackgroundColor=none;fontColor=#000000;align=center;" parent="-0bQhvXT2Ae33jYl0nog-1" vertex="1">
          <mxGeometry x="60" y="-310" width="770" height="150" as="geometry" />
        </mxCell>
        <mxCell id="z8cZ8EHx2QSfqwb-phpB-9" value="Admin" style="rounded=1;whiteSpace=wrap;html=1;shadow=0;glass=1;labelBackgroundColor=none;sketch=0;strokeWidth=6;fontFamily=Helvetica;fontSize=22;align=center;strokeColor=#b46504;fillColor=none;" parent="-0bQhvXT2Ae33jYl0nog-1" vertex="1">
          <mxGeometry x="360" y="350" width="250" height="160" as="geometry" />
        </mxCell>
        <mxCell id="z8cZ8EHx2QSfqwb-phpB-10" value="" style="edgeStyle=elbowEdgeStyle;elbow=vertical;endArrow=classic;html=1;fontFamily=Helvetica;fontSize=22;fontColor=#000000;exitX=0.957;exitY=1.1;exitDx=0;exitDy=0;exitPerimeter=0;" parent="-0bQhvXT2Ae33jYl0nog-1" source="73HmqnTuaRTmXrYc_TzY-0" edge="1">
          <mxGeometry width="50" height="50" relative="1" as="geometry">
            <mxPoint x="379.6399999999999" y="132.02999999999997" as="sourcePoint" />
            <mxPoint x="670" y="-60" as="targetPoint" />
            <Array as="points">
              <mxPoint x="550" y="125" />
            </Array>
          </mxGeometry>
        </mxCell>
        <mxCell id="z8cZ8EHx2QSfqwb-phpB-21" value="" style="edgeStyle=elbowEdgeStyle;elbow=vertical;endArrow=classic;html=1;fontFamily=Helvetica;fontSize=22;fontColor=#000000;exitX=0.5;exitY=0;exitDx=0;exitDy=0;" parent="-0bQhvXT2Ae33jYl0nog-1" source="z8cZ8EHx2QSfqwb-phpB-0" edge="1">
          <mxGeometry width="50" height="50" relative="1" as="geometry">
            <mxPoint x="610" y="300" as="sourcePoint" />
            <mxPoint x="790" y="-50" as="targetPoint" />
            <Array as="points">
              <mxPoint x="810" y="210" />
              <mxPoint x="790" y="80" />
            </Array>
          </mxGeometry>
        </mxCell>
        <mxCell id="z8cZ8EHx2QSfqwb-phpB-22" value="" style="edgeStyle=elbowEdgeStyle;elbow=vertical;endArrow=classic;html=1;fontFamily=Helvetica;fontSize=22;fontColor=#000000;" parent="-0bQhvXT2Ae33jYl0nog-1" source="z8cZ8EHx2QSfqwb-phpB-9" edge="1">
          <mxGeometry width="50" height="50" relative="1" as="geometry">
            <mxPoint x="350" y="130" as="sourcePoint" />
            <mxPoint x="380" y="100" as="targetPoint" />
          </mxGeometry>
        </mxCell>
        <mxCell id="z8cZ8EHx2QSfqwb-phpB-23" value="" style="edgeStyle=elbowEdgeStyle;elbow=vertical;endArrow=classic;html=1;fontFamily=Helvetica;fontSize=22;fontColor=#000000;exitX=0.5;exitY=0;exitDx=0;exitDy=0;entryX=0.5;entryY=0;entryDx=0;entryDy=0;" parent="-0bQhvXT2Ae33jYl0nog-1" source="z8cZ8EHx2QSfqwb-phpB-9" edge="1" target="z8cZ8EHx2QSfqwb-phpB-0">
          <mxGeometry width="50" height="50" relative="1" as="geometry">
            <mxPoint x="350" y="130" as="sourcePoint" />
            <mxPoint x="800" y="280" as="targetPoint" />
            <Array as="points">
              <mxPoint x="780" y="315" />
            </Array>
          </mxGeometry>
        </mxCell>
        <mxCell id="z8cZ8EHx2QSfqwb-phpB-24" value="State variables" style="shape=table;childLayout=tableLayout;rowLines=0;columnLines=0;startSize=40;html=1;whiteSpace=wrap;collapsible=0;recursiveResize=0;expand=0;pointerEvents=0;fontStyle=1;align=center;rounded=0;shadow=0;glass=0;labelBackgroundColor=none;sketch=0;strokeWidth=4;fontSize=23;strokeColor=#23445d;fillColor=#BAC8D3;" parent="-0bQhvXT2Ae33jYl0nog-1" vertex="1">
          <mxGeometry x="530" y="-150" width="340" height="245" as="geometry" />
        </mxCell>
        <mxCell id="z8cZ8EHx2QSfqwb-phpB-25" value="&lt;font style=&quot;font-size: 18px&quot;&gt;final&lt;/font&gt;" style="swimlane;horizontal=0;points=[[0,0.5],[1,0.5]];portConstraint=eastwest;startSize=70;html=1;whiteSpace=wrap;collapsible=0;recursiveResize=0;expand=0;pointerEvents=0;" parent="z8cZ8EHx2QSfqwb-phpB-24" vertex="1">
          <mxGeometry y="40" width="340" height="93" as="geometry" />
        </mxCell>
        <mxCell id="z8cZ8EHx2QSfqwb-phpB-26" value="&lt;br&gt;&lt;br&gt;&lt;br&gt;&lt;br&gt;&lt;br&gt;&lt;br&gt;Initial Capital + Interest" style="swimlane;connectable=0;startSize=0;html=1;whiteSpace=wrap;collapsible=0;recursiveResize=0;expand=0;pointerEvents=0;align=center;" parent="z8cZ8EHx2QSfqwb-phpB-25" vertex="1">
          <mxGeometry x="70" width="130" height="93" as="geometry" />
        </mxCell>
        <mxCell id="z8cZ8EHx2QSfqwb-phpB-27" value="&lt;span style=&quot;font-family: &amp;#34;courier new&amp;#34; , &amp;#34;courier&amp;#34; , monospace ; font-size: 31px ; font-weight: 400 ; background-color: rgb(255 , 255 , 255)&quot;&gt;\(e_1\)&lt;/span&gt;" style="swimlane;connectable=0;startSize=0;html=1;whiteSpace=wrap;collapsible=0;recursiveResize=0;expand=0;pointerEvents=0;align=center;verticalAlign=top;" parent="z8cZ8EHx2QSfqwb-phpB-25" vertex="1">
          <mxGeometry x="200" width="115" height="93" as="geometry" />
        </mxCell>
        <mxCell id="z8cZ8EHx2QSfqwb-phpB-28" value="" style="swimlane;connectable=0;startSize=0;html=1;whiteSpace=wrap;collapsible=0;recursiveResize=0;expand=0;pointerEvents=0;" parent="z8cZ8EHx2QSfqwb-phpB-25" vertex="1">
          <mxGeometry x="315" width="25" height="93" as="geometry" />
        </mxCell>
        <mxCell id="z8cZ8EHx2QSfqwb-phpB-29" value="&lt;font style=&quot;font-size: 18px&quot;&gt;initial&lt;/font&gt;" style="swimlane;horizontal=0;points=[[0,0.5],[1,0.5]];portConstraint=eastwest;startSize=70;html=1;whiteSpace=wrap;collapsible=0;recursiveResize=0;expand=0;pointerEvents=0;" parent="z8cZ8EHx2QSfqwb-phpB-24" vertex="1">
          <mxGeometry y="133" width="340" height="112" as="geometry" />
        </mxCell>
        <mxCell id="z8cZ8EHx2QSfqwb-phpB-30" value="&lt;div&gt;&lt;br&gt;&lt;br&gt;&lt;br&gt;&lt;span&gt;Initial Capital&amp;nbsp;&lt;/span&gt;&lt;br&gt;&lt;/div&gt;" style="swimlane;connectable=0;startSize=0;html=1;whiteSpace=wrap;collapsible=0;recursiveResize=0;expand=0;pointerEvents=0;align=center;verticalAlign=top;textDirection=ltr;" parent="z8cZ8EHx2QSfqwb-phpB-29" vertex="1">
          <mxGeometry x="70" width="130" height="112" as="geometry" />
        </mxCell>
        <mxCell id="z8cZ8EHx2QSfqwb-phpB-31" value="&lt;span style=&quot;font-family: &amp;#34;courier new&amp;#34; , &amp;#34;courier&amp;#34; , monospace ; font-size: 31px ; font-weight: 400 ; background-color: rgb(255 , 255 , 255)&quot;&gt;\(e_0\)&lt;/span&gt;" style="swimlane;connectable=0;startSize=0;html=1;whiteSpace=wrap;collapsible=0;recursiveResize=0;expand=0;pointerEvents=0;fontSize=22;horizontal=1;textDirection=ltr;verticalAlign=top;" parent="z8cZ8EHx2QSfqwb-phpB-29" vertex="1">
          <mxGeometry x="200" width="115" height="112" as="geometry" />
        </mxCell>
        <mxCell id="z8cZ8EHx2QSfqwb-phpB-32" value="" style="swimlane;connectable=0;startSize=0;html=1;whiteSpace=wrap;collapsible=0;recursiveResize=0;expand=0;pointerEvents=0;" parent="z8cZ8EHx2QSfqwb-phpB-29" vertex="1">
          <mxGeometry x="315" width="25" height="112" as="geometry" />
        </mxCell>
        <mxCell id="8kdWbhvvpFdhcV9sU330-0" value="" style="shape=actor;whiteSpace=wrap;html=1;rounded=0;shadow=0;glass=0;labelBackgroundColor=none;sketch=0;strokeWidth=4;fillColor=#b0e3e6;fontSize=27;align=center;strokeColor=#0e8088;" parent="-0bQhvXT2Ae33jYl0nog-1" vertex="1">
          <mxGeometry x="-90" y="210" width="40" height="60" as="geometry" />
        </mxCell>
        <mxCell id="lchQ4kVmIElstWsXEReo-0" value="Investor" style="text;html=1;strokeColor=none;fillColor=none;align=center;verticalAlign=middle;whiteSpace=wrap;rounded=0;shadow=0;glass=1;labelBackgroundColor=none;sketch=0;fontFamily=Helvetica;fontSize=22;fontColor=#000000;" parent="-0bQhvXT2Ae33jYl0nog-1" vertex="1">
          <mxGeometry x="50" y="290" width="40" height="20" as="geometry" />
        </mxCell>
        <mxCell id="lchQ4kVmIElstWsXEReo-1" value="Customer" style="text;html=1;strokeColor=none;fillColor=none;align=center;verticalAlign=middle;whiteSpace=wrap;rounded=0;shadow=0;glass=1;labelBackgroundColor=none;sketch=0;fontFamily=Helvetica;fontSize=22;fontColor=#000000;" parent="-0bQhvXT2Ae33jYl0nog-1" vertex="1">
          <mxGeometry x="-90" y="290" width="40" height="20" as="geometry" />
        </mxCell>
        <mxCell id="lchQ4kVmIElstWsXEReo-8" value="" style="endArrow=classic;startArrow=classic;html=1;fontFamily=Helvetica;fontSize=22;fontColor=#000000;exitX=0.5;exitY=0;exitDx=0;exitDy=0;entryX=0;entryY=0.5;entryDx=0;entryDy=0;" parent="-0bQhvXT2Ae33jYl0nog-1" source="8kdWbhvvpFdhcV9sU330-0" target="vNSHKSkF7IN6wdN3dEBM-1" edge="1">
          <mxGeometry width="50" height="50" relative="1" as="geometry">
            <mxPoint x="480" y="220" as="sourcePoint" />
            <mxPoint x="20" y="10" as="targetPoint" />
            <Array as="points">
              <mxPoint x="-70" y="30" />
              <mxPoint x="-70" y="20" />
            </Array>
          </mxGeometry>
        </mxCell>
        <mxCell id="lchQ4kVmIElstWsXEReo-10" value="" style="endArrow=classic;startArrow=classic;html=1;fontFamily=Helvetica;fontSize=22;fontColor=#000000;exitX=0.5;exitY=0;exitDx=0;exitDy=0;entryX=0.556;entryY=1.04;entryDx=0;entryDy=0;entryPerimeter=0;" parent="-0bQhvXT2Ae33jYl0nog-1" source="z8cZ8EHx2QSfqwb-phpB-1" target="vNSHKSkF7IN6wdN3dEBM-6" edge="1">
          <mxGeometry width="50" height="50" relative="1" as="geometry">
            <mxPoint x="67" y="310" as="sourcePoint" />
            <mxPoint x="67" y="50" as="targetPoint" />
          </mxGeometry>
        </mxCell>
        <mxCell id="vNSHKSkF7IN6wdN3dEBM-0" value="&lt;span style=&quot;font-size: 23px ; font-weight: 700&quot;&gt;Contract Balance&lt;/span&gt;" style="rounded=1;whiteSpace=wrap;html=1;fillColor=#fff2cc;strokeWidth=4;strokeColor=#D6B656;" vertex="1" parent="-0bQhvXT2Ae33jYl0nog-1">
          <mxGeometry x="-30" y="-105" width="420" height="50" as="geometry" />
        </mxCell>
        <mxCell id="vNSHKSkF7IN6wdN3dEBM-1" value="&lt;span style=&quot;font-size: 14px ; font-weight: 700&quot;&gt;1 aDAIs&lt;/span&gt;" style="rounded=0;whiteSpace=wrap;html=1;fillColor=#fff2cc;strokeColor=#d6b656;dashed=1;" vertex="1" parent="-0bQhvXT2Ae33jYl0nog-1">
          <mxGeometry x="-30" y="-5" width="180" height="50" as="geometry" />
        </mxCell>
        <mxCell id="vNSHKSkF7IN6wdN3dEBM-2" value="&lt;span style=&quot;font-family: &amp;#34;courier new&amp;#34; , &amp;#34;courier&amp;#34; , monospace ; font-size: 17px ; text-align: left ; background-color: rgb(255 , 242 , 204)&quot;&gt;\(e_0*aDAI + interest\)&lt;/span&gt;" style="rounded=0;whiteSpace=wrap;html=1;fillColor=#fff2cc;strokeColor=#D6B656;dashed=1;" vertex="1" parent="-0bQhvXT2Ae33jYl0nog-1">
          <mxGeometry x="150" y="-5" width="240" height="50" as="geometry" />
        </mxCell>
        <mxCell id="vNSHKSkF7IN6wdN3dEBM-4" value="&lt;span style=&quot;font-size: 14px ; font-weight: 700&quot;&gt;IN&lt;/span&gt;" style="rounded=0;whiteSpace=wrap;html=1;fillColor=#fff2cc;strokeColor=#d6b656;" vertex="1" parent="-0bQhvXT2Ae33jYl0nog-1">
          <mxGeometry x="-30" y="-55" width="180" height="50" as="geometry" />
        </mxCell>
        <mxCell id="vNSHKSkF7IN6wdN3dEBM-5" value="&lt;span style=&quot;font-size: 14px ; font-weight: 700&quot;&gt;OUT&lt;/span&gt;" style="rounded=0;whiteSpace=wrap;html=1;fillColor=#fff2cc;strokeColor=#d6b656;" vertex="1" parent="-0bQhvXT2Ae33jYl0nog-1">
          <mxGeometry x="150" y="-55" width="240" height="50" as="geometry" />
        </mxCell>
        <mxCell id="vNSHKSkF7IN6wdN3dEBM-6" value="&lt;span style=&quot;font-size: 14px ; font-weight: 700&quot;&gt;1 aDAIu&lt;/span&gt;" style="rounded=0;whiteSpace=wrap;html=1;fillColor=#fff2cc;strokeColor=#d6b656;dashed=1;" vertex="1" parent="-0bQhvXT2Ae33jYl0nog-1">
          <mxGeometry x="-30" y="45" width="180" height="50" as="geometry" />
        </mxCell>
        <mxCell id="73HmqnTuaRTmXrYc_TzY-0" value="&lt;span style=&quot;font-family: &amp;#34;courier new&amp;#34; , &amp;#34;courier&amp;#34; , monospace ; font-size: 17px ; text-align: left ; background-color: rgb(255 , 242 , 204)&quot;&gt;\(1+\frac{(e_1-e_0)}{e_0}*aDAI + interest\)&lt;/span&gt;" style="rounded=0;whiteSpace=wrap;html=1;fillColor=#fff2cc;strokeColor=#D6B656;dashed=1;" vertex="1" parent="-0bQhvXT2Ae33jYl0nog-1">
          <mxGeometry x="150" y="45" width="240" height="50" as="geometry" />
        </mxCell>
        <mxCell id="bbyPwbJ073HSe6fmXLgM-0" value="" style="rounded=1;whiteSpace=wrap;html=1;shadow=0;glass=1;labelBackgroundColor=none;sketch=0;strokeWidth=4;gradientColor=none;fontSize=15;align=center;fillColor=none;" vertex="1" parent="-0bQhvXT2Ae33jYl0nog-1">
          <mxGeometry x="-80" y="-330" width="970" height="490" as="geometry" />
        </mxCell>
      </root>
    </mxGraphModel>
  </diagram>
</mxfile>
